<?xml version="1.0" encoding="UTF-8"?><svg id="Camada_1" xmlns="http://www.w3.org/2000/svg" viewBox="0 0 1017.55 416.5"><defs><style>.cls-1{fill:#81665b;}</style></defs><path class="cls-1" d="m497.08,410.2v-5.3c0-39.67-.06-79.33.09-119,.02-4.39-.91-6.29-5.74-6.19-4.05.08-8.2-.82-12.17-1.83-4.34-1.1-6.46-4.02-6.28-8.85.45-11.57-1.87-10.09,10.47-10.24,4.3-.05,8.61,0,13.62,0,0-5.95-.13-11.4.03-16.83.28-9.9,2.39-19.3,6.98-28.23,7.51-14.59,20.16-21.41,35.51-24.37,8.44-1.63,16.79-1.21,25.16.95,4.21,1.09,6.01,2.78,5.88,7.43-.36,12.9-.99,13.69-14.01,13.96-3.97.08-8.11-.07-11.85,1-11.43,3.27-18.93,13.48-19.22,25.51-.16,6.65-.03,13.3-.03,20.58,3.85,0,7.95,0,12.04,0,9,0,18,.1,27-.03,3.53-.05,5.28.99,5.02,4.85-.25,3.82-.25,7.68,0,11.49.25,3.76-1.25,4.91-4.91,4.85-11-.18-22-.06-33-.06-1.8,0-3.6,0-5.73,0v130.12h92.23v-5.88c0-22.17-.1-44.33.06-66.5.05-6.17,1.32-12.34,1.24-18.5-.14-11.58-.99-23.15-1.22-34.72-.07-3.55-1.25-4.6-4.65-4.6-3.63,0-7.29-.46-10.88-1.06-6.26-1.05-8.65-4.45-8.66-11.77q0-8.16,8.07-8.17c4.83,0,9.66-.03,14.5-.07.31,0,.62-.19,1.09-.34.43-7.53.62-15.15,1.34-22.72,2.77-28.84,21.92-46.22,50.64-47.11,5.71-.18,11.48,1.18,17.19,2.01,3.44.5,4.85,2.43,4.79,6.22-.24,14.53-.1,14.66-14.69,14.84-8.17.1-15.92.98-22.08,7.11-5.49,5.45-7.65,12.41-8.22,19.77-.5,6.43-.1,12.93-.1,19.91,2.09.14,3.85.35,5.61.36,11.17.04,22.33.11,33.5-.01,3.57-.04,5.14,1.02,4.92,4.87-.3,5.13-.07,10.28-.07,15.97h-43.14v130.53h122.63c-5.15-2.2-11.27-4.37-16.96-7.35-16.31-8.55-26.62-22.31-32.01-39.59-7.54-24.15-8.08-48.37,2.8-71.74,10.79-23.19,29.48-35.72,54.8-39.17,15.56-2.12,30.15.37,43.83,7.54,18.96,9.94,28.54,26.64,31.93,47.21.91,5.53.98,11.24,1.05,16.87.08,6.67-2.37,8.98-9.01,8.98-32,.02-64,0-96,0h-5.37c-.51,21.1,6.77,44.63,28.64,53.23,15.06,5.92,30.4,4.18,45.08-2.46,4.98-2.26,9.72-5.05,14.59-7.57,5.55-2.87,8.69-2.16,12.49,2.73,2.23,2.87,4.49,5.71,6.68,8.48-6.28,9.7-17.93,16.15-41.49,22.98h124.95c-13.42-2.99-24.21-8.64-33.24-17.35-11.36-10.95-17.77-24.66-21.05-39.88-4.44-20.61-3.81-40.89,5.15-60.37,10.96-23.82,29.66-36.95,55.57-40.35,18.2-2.39,35.21.77,50.03,11.58,15.69,11.44,24.78,26.98,25.03,46.93.06,4.83.02,9.67,0,14.5-.01,6.72-.77,7.52-7.4,7.53-17.83.02-35.67,0-53.5,0-15.81,0-31.61,0-47.33,0-5.67,24.5,14.31,52.4,38.62,55.75,17.2,2.37,32.11-2.72,46.47-11.07,8.2-4.77,9.97-4.57,16.08,2.44,7.18,8.22,7.31,8.4-1.55,14.92-4.64,3.41-9.66,6.39-14.82,8.96-5.16,2.56-10.7,4.36-16.3,6.59h39.38v6.05H.39c-.09-1.74-.18-3.47-.3-5.77h49.88c-15.63-4.96-28.06-13.8-36.89-27.48C4.7,370.28.35,356.04.09,340.56c-.26-15.31-.33-30.52,5.64-45.11,10.42-25.51,29.02-39.86,56.48-43.18,19.12-2.31,36.6,1.37,52.41,12.37,9.71,6.76,9.64,6.87,2.57,16.41-5.17,6.97-6.86,7.42-14.25,2.31-13.37-9.25-28.05-10.84-43.28-6.97-14.63,3.72-23.39,14.15-27.47,28.24-5.64,19.47-5.82,39.08,1.45,58.21,7.67,20.17,25.75,28.44,45.45,26.1,9.78-1.16,18-5.42,25.56-11.4,6.46-5.1,9.84-4.58,14.9,2.1,6.65,8.78,6.58,8.69-1.93,15.85-8.8,7.41-18.93,11.99-31,14.82h165.31c-19.23-3.3-37.17-9.82-53.05-21.29-17.3-12.49-28.29-29.72-35.8-49.32-8.02-20.93-12.06-42.72-13.02-65.09-.44-10.31-.66-20.64-.97-30.96-.05-1.63,0-3.26,0-5.28,2.82-.15,5.12-.38,7.41-.38,31.5-.02,63-.02,94.5-.02,49.44,0,98.87,0,148.31,0q6.79,0,6.81,6.9c0,4.28,0,8.56,0,13.14,9.67.83,18.54,3.68,26.15,9.73,16.75,13.3,21.03,31.11,13.53,52.37-9.7,27.49-30.46,43.1-57.85,50.69-3.96,1.1-8.17,1.28-12.2,2.16-1.48.32-3.12,1.16-4.11,2.28-14.86,16.73-33.79,26.46-55.08,32.09-4.15,1.1-8.45,1.66-12.65,2.87h193.19Zm-318.84-143.06c.63,7.3.61,14.32,1.94,21.08,2.36,11.97,5.2,23.87,8.43,35.64,6.99,25.5,22.15,43.83,47.69,52.56,22.56,7.71,45.59,8.52,68.8,3.91,27.05-5.37,47.43-19.46,58.22-45.77,5.87-14.32,9.69-29.15,11.66-44.45.97-7.52,1.4-15.11,2.1-22.97h-198.84Zm567.66,46.85h81.92c1.47-20.6-13.56-39.23-32.78-41.08-27.25-2.62-45.1,12.24-49.14,41.08Zm163.81.13h81.67c.35-24.26-15.08-40.77-37.21-41.36-28.17-.75-42.27,18.96-44.46,41.36Zm-516.64,24.25c13.68-7.06,23.1-16.7,26.65-31.23,2.37-9.71-1.13-16.27-10-19.3-4.94-1.69-5.49-1.13-6.2,4.12-.97,7.19-2.05,14.39-3.66,21.45-1.86,8.14-4.36,16.13-6.79,24.96Z"/><path class="cls-1" d="m230.97,167.5c1.01-18.34,7.01-32.94,18.02-45.43,10.87-12.34,24.14-21.76,38.39-29.6,12.43-6.84,15.72-16.45,12.11-30.14-4.35-16.52-13.44-30.56-23.5-44.05-3.47-4.66-7.25-9.09-10.59-13.84-.68-.97-.02-2.88.02-4.36,1.38.09,3.21-.38,4.06.34,19.45,16.26,36.98,34.28,45.68,58.68,6.86,19.24,2.75,37.35-15.71,49.92-12.96,8.82-25.19,18.57-34.76,31.18-7.35,9.68-12.02,20.42-10.12,32.87,1.81,11.9,10.2,19.47,19,26.46,4.15,3.29,9.09,5.62,13.05,9.09,1.69,1.48,3.01,5.27,2.28,7.12-.74,1.85-4.54,4.01-6.51,3.61-19.33-3.89-43.82-18.73-49.61-41.74-.97-3.83-1.4-7.8-1.8-10.1Z"/></svg>