<svg width="32" height="32" viewBox="0 0 32 32" fill="none" xmlns="http://www.w3.org/2000/svg">
<path opacity="0.2" d="M26.2088 26H5.79127C5.54547 26 5.30814 25.9102 5.12396 25.7474C4.93978 25.5847 4.82146 25.3602 4.79127 25.1162L3.01002 10.1162C2.99354 9.9755 3.00717 9.83286 3.04999 9.69778C3.09281 9.5627 3.16385 9.43826 3.25841 9.33271C3.35296 9.22716 3.46887 9.14292 3.59845 9.08556C3.72803 9.0282 3.86831 8.99903 4.01002 8.99999H27.99C28.1317 8.99903 28.272 9.0282 28.4016 9.08556C28.5312 9.14292 28.6471 9.22716 28.7416 9.33271C28.8362 9.43826 28.9072 9.5627 28.95 9.69778C28.9929 9.83286 29.0065 9.9755 28.99 10.1162L27.2088 25.1162C27.1786 25.3602 27.0603 25.5847 26.8761 25.7474C26.6919 25.9102 26.4546 26 26.2088 26Z" fill="#A18072"/>
<path d="M26.2088 26H5.79127C5.54547 26 5.30814 25.9102 5.12396 25.7474C4.93978 25.5847 4.82146 25.3602 4.79127 25.1162L3.01002 10.1162C2.99354 9.9755 3.00717 9.83286 3.04999 9.69778C3.09281 9.5627 3.16385 9.43826 3.25841 9.33271C3.35296 9.22716 3.46887 9.14292 3.59845 9.08556C3.72803 9.0282 3.86831 8.99903 4.01002 8.99999H27.99C28.1317 8.99903 28.272 9.0282 28.4016 9.08556C28.5312 9.14292 28.6471 9.22716 28.7416 9.33271C28.8362 9.43826 28.9072 9.5627 28.95 9.69778C28.9929 9.83286 29.0065 9.9755 28.99 10.1162L27.2088 25.1162C27.1786 25.3602 27.0603 25.5847 26.8761 25.7474C26.6919 25.9102 26.4546 26 26.2088 26Z" stroke="#A18072" stroke-width="2" stroke-linecap="round" stroke-linejoin="round"/>
<path d="M11 13V8C11 6.67392 11.5268 5.40215 12.4645 4.46447C13.4021 3.52678 14.6739 3 16 3C17.3261 3 18.5979 3.52678 19.5355 4.46447C20.4732 5.40215 21 6.67392 21 8V13" stroke="#A18072" stroke-width="2" stroke-linecap="round" stroke-linejoin="round"/>
</svg>
